<?xml version="1.0" standalone="no"?><!DOCTYPE svg PUBLIC "-//W3C//DTD SVG 1.1//EN"
  "http://www.w3.org/Graphics/SVG/1.1/DTD/svg11.dtd">
<svg t="1742523599068" class="icon" viewBox="0 0 1024 1024" version="1.1" xmlns="http://www.w3.org/2000/svg" p-id="8289"
     xmlns:xlink="http://www.w3.org/1999/xlink" width="200" height="200">
  <path
    d="M907.946667 799.402667a427.406222 427.406222 0 0 0-92.103111-136.561778 429.312 429.312 0 0 0-136.533334-92.131556c-0.483556-0.227556-0.938667-0.341333-1.422222-0.568889a282.823111 282.823111 0 0 0 117.504-229.717333A283.392 283.392 0 0 0 512 57.002667a283.392 283.392 0 0 0-283.420444 283.420444 283.192889 283.192889 0 0 0 117.475555 229.831111c-0.455111 0.227556-0.910222 0.341333-1.365333 0.568889-51.2 21.617778-97.137778 52.593778-136.590222 92.131556a429.312 429.312 0 0 0-92.103112 136.561777 424.789333 424.789333 0 0 0-33.706666 157.838223 9.130667 9.130667 0 0 0 9.130666 9.386666h68.551112a9.102222 9.102222 0 0 0 9.159111-8.931555 340.736 340.736 0 0 1 100.352-233.500445 340.593778 340.593778 0 0 1 242.517333-100.437333c91.648 0 177.720889 35.640889 242.517333 100.437333a340.736 340.736 0 0 1 100.323556 233.500445 9.045333 9.045333 0 0 0 9.159111 8.903111h68.551111a9.187556 9.187556 0 0 0 9.159111-9.386667 425.813333 425.813333 0 0 0-33.706666-157.923555zM512 537.031111c-52.451556 0-101.831111-20.451556-138.979556-57.6a195.299556 195.299556 0 0 1-57.6-138.979555c0-52.451556 20.48-101.831111 57.6-138.951112A195.299556 195.299556 0 0 1 512 143.872c52.451556 0 101.831111 20.451556 138.979556 57.6a195.299556 195.299556 0 0 1 57.6 138.951111c0 52.48-20.48 101.831111-57.6 138.979556a195.299556 195.299556 0 0 1-138.979556 57.6z"
    fill="#ffffff" fill-opacity=".65" p-id="8290"></path>
</svg>
