<svg xmlns="http://www.w3.org/2000/svg" width="20" height="20" viewBox="0 0 20 20" fill="none">
  <path d="M15.8333 6.66667H14.1667V5C14.1667 2.23858 11.9281 0 9.16667 0C6.40525 0 4.16667 2.23858 4.16667 5V6.66667H2.5C1.58083 6.66667 0.833336 7.41417 0.833336 8.33333V18.3333C0.833336 19.2525 1.58083 20 2.5 20H15.8333C16.7525 20 17.5 19.2525 17.5 18.3333V8.33333C17.5 7.41417 16.7525 6.66667 15.8333 6.66667ZM5.83334 5C5.83334 3.15917 7.32584 1.66667 9.16667 1.66667C11.0075 1.66667 12.5 3.15917 12.5 5V6.66667H5.83334V5ZM15.8333 18.3333H2.5V8.33333H15.8333V18.3333ZM9.16667 15.8333C10.0858 15.8333 10.8333 15.0858 10.8333 14.1667C10.8333 13.2475 10.0858 12.5 9.16667 12.5C8.2475 12.5 7.5 13.2475 7.5 14.1667C7.5 15.0858 8.2475 15.8333 9.16667 15.8333Z" fill="#BBB"/>
</svg> 