<svg xmlns="http://www.w3.org/2000/svg" viewBox="0 0 500 400" fill="none">
  <!-- 背景元素 -->
  <rect x="50" y="100" width="400" height="250" rx="10" fill="#EAEEFF" />
  
  <!-- 桌面平台 -->
  <rect x="100" y="160" width="300" height="160" rx="5" fill="#4169E1" />
  <rect x="110" y="170" width="280" height="140" rx="4" fill="#5D7EFF" />
  
  <!-- 人物角色 -->
  <!-- 大人物 -->
  <rect x="180" y="150" width="35" height="60" rx="10" fill="#FFA07A" /> <!-- 身体 -->
  <circle cx="197" cy="130" r="20" fill="#FFA07A" /> <!-- 头部 -->
  <rect x="175" y="210" width="10" height="30" fill="#6A5ACD" /> <!-- 左腿 -->
  <rect x="210" y="210" width="10" height="30" fill="#6A5ACD" /> <!-- 右腿 -->
  
  <!-- 小人物 -->
  <rect x="240" y="170" width="25" height="45" rx="8" fill="#FFDAB9" /> <!-- 身体 -->
  <circle cx="252" cy="155" r="15" fill="#FFDAB9" /> <!-- 头部 -->
  <rect x="235" y="215" width="8" height="22" fill="#4682B4" /> <!-- 左腿 -->
  <rect x="262" y="215" width="8" height="22" fill="#4682B4" /> <!-- 右腿 -->
  
  <!-- 屏幕元素 -->
  <rect x="130" y="190" width="100" height="60" rx="3" fill="#F0F8FF" />
  <rect x="135" y="195" width="90" height="5" fill="#B0C4DE" />
  <rect x="135" y="205" width="60" height="5" fill="#B0C4DE" />
  <rect x="135" y="215" width="80" height="5" fill="#B0C4DE" />
  <rect x="135" y="225" width="40" height="5" fill="#B0C4DE" />
  
  <!-- 右侧屏幕弹窗 -->
  <rect x="270" y="180" width="120" height="80" rx="3" fill="#F0F8FF" />
  <rect x="275" y="185" width="110" height="5" fill="#B0C4DE" />
  <rect x="275" y="195" width="90" height="5" fill="#B0C4DE" />
  <rect x="275" y="205" width="100" height="5" fill="#B0C4DE" />
  <rect x="275" y="215" width="70" height="5" fill="#B0C4DE" />
  <rect x="275" y="225" width="60" height="5" fill="#B0C4DE" />
  <rect x="275" y="235" width="80" height="5" fill="#B0C4DE" />
  
  <!-- 货币符号装饰 -->
  <circle cx="150" cy="290" r="15" fill="#FFD700" />
  <circle cx="180" cy="275" r="18" fill="#FFD700" />
  <circle cx="280" cy="290" r="15" fill="#FFD700" />
</svg> 