<?xml version="1.0" standalone="no"?><!DOCTYPE svg PUBLIC "-//W3C//DTD SVG 1.1//EN" "http://www.w3.org/Graphics/SVG/1.1/DTD/svg11.dtd"><svg t="1744187809525" class="icon" viewBox="0 0 1024 1024" version="1.1" xmlns="http://www.w3.org/2000/svg" p-id="5822" xmlns:xlink="http://www.w3.org/1999/xlink" width="200" height="200"><path d="M761.224858 701.603607c2.107822 1.505587 4.215644 3.211919 6.122721 5.118996l243.001764 242.901392c16.360714 16.360714 16.561459 43.7624-0.100372 60.524603-8.029798 8.029798-18.870025 12.646932-30.212115 12.646932s-22.28269-4.416389-30.312488-12.546559L706.722603 767.247206c-1.907077-1.907077-3.613409-3.914527-5.018623-6.122721a427.125034 427.125034 0 0 1-272.109783 97.26093C192.614781 858.485787 0.602235 666.473241 0.602235 429.493825S192.614781 0.501862 429.594197 0.501862s428.991962 192.012547 428.991963 428.991963c0 103.283278-36.435209 198.034895-97.26093 272.00941z m-331.731033 71.164086c189.503235 0 343.173495-153.670261 343.173495-343.173496S619.097432 86.320329 429.594197 86.320329 86.420702 239.99059 86.420702 429.493825s153.670261 343.173495 343.173495 343.173495z" fill="#1296db" p-id="5823"></path></svg>